<svg width="100" height="100" viewBox="0 0 100 100" fill="none" xmlns="http://www.w3.org/2000/svg" style="width: 200px; height: 200px;"><style>
     .line-rocket1 {animation:line-rocket1-flame 200ms infinite linear; transform-origin: 34px 70px;}
     @keyframes line-rocket1-flame {
         0%{transform:scale(1);}
         50%{transform:scale(1.5);}
     }
     @media (prefers-reduced-motion: reduce) {
         .line-rocket1 {
             animation: none;
         }
     }
    </style><g clip-path="url(#clip0)"><g filter="url(#filter0_ii)"><path class="fill1" d="M23.0423 33.6122L34.8942 44.674L57.9797 21.5885C57.9797 21.5885 48.2128 18.0368 38.0019 20.7005C32.3772 22.1678 25.8109 28.0755 22.9856 30.824C22.1921 31.5959 22.2331 32.8568 23.0423 33.6122Z" fill="#FFF" stroke-width="2px"></path></g><path class="stroke1" d="M23.0423 33.6122L34.8942 44.674L57.9797 21.5885C57.9797 21.5885 48.2128 18.0368 38.0019 20.7005C32.3772 22.1678 25.8109 28.0755 22.9856 30.824C22.1921 31.5959 22.2331 32.8568 23.0423 33.6122Z" stroke="rgba(121,52,210,1)" stroke-width="2px"></path><g filter="url(#filter1_ii)"><path class="fill1" d="M68.8384 79.1389L57.5715 67.4818L80.2505 43.997C80.2505 43.997 83.9721 53.7004 81.487 63.9562C80.1181 69.6057 74.3259 76.2741 71.6272 79.147C70.8692 79.9538 69.6077 79.9348 68.8384 79.1389Z" fill="#FFF" stroke-width="2px"></path></g><path class="stroke1" d="M68.8384 79.1389L57.5715 67.4818L80.2505 43.997C80.2505 43.997 83.9721 53.7004 81.487 63.9562C80.1181 69.6057 74.3259 76.2741 71.6272 79.147C70.8692 79.9538 69.6077 79.9348 68.8384 79.1389Z" stroke="rgba(121,52,210,1)" stroke-width="2px"></path><g filter="url(#filter2_ii)"><path class="fill1" d="M48.464 73.5645L29.1922 54.2927C27.8324 52.9329 27.6347 50.8041 28.7698 49.2518C31.547 45.4541 37.0549 38.2696 43.4415 31.8028C52.6524 22.4763 63.587 15.2089 63.587 15.2089C63.587 15.2089 90.8322 6.49408 92.608 7.38198C94.3838 8.26989 86.3927 37.5707 86.3927 37.5707C86.3927 37.5707 81.9532 48.2255 70.8512 59.2124C63.356 66.6298 56.7991 71.5952 53.3298 74.0386C51.8113 75.108 49.7772 74.8778 48.464 73.5645Z" fill="#FFF" stroke-width="2px"></path></g><path class="stroke1" d="M63.587 15.2089C63.587 15.2089 52.6524 22.4763 43.4415 31.8028C37.0549 38.2696 31.547 45.4541 28.7698 49.2518C27.6347 50.8041 27.8324 52.9329 29.1922 54.2927L48.464 73.5645C49.7772 74.8778 51.8113 75.108 53.3298 74.0386C56.7991 71.5952 63.356 66.6298 70.8512 59.2124C81.9532 48.2255 86.3927 37.5707 86.3927 37.5707M63.587 15.2089C63.587 15.2089 90.8322 6.49408 92.608 7.38198C94.3838 8.26988 86.3927 37.5707 86.3927 37.5707M63.587 15.2089L86.3927 37.5707" stroke="rgba(121,52,210,1)" stroke-width="2px"></path><g filter="url(#filter3_ii)"><circle class="fill1" cx="58.8676" cy="42.8981" r="8.87904" fill="#FFF" stroke-width="2px"></circle></g><circle class="stroke1" cx="58.8676" cy="42.8981" r="8.87904" stroke="rgba(121,52,210,1)" stroke-width="2px"></circle><g class="line-rocket1"><g filter="url(#filter4_ii)"><path class="fill2" d="M33.5956 81.36C35.7821 78.4143 37.1248 71.0988 33.1053 67.5155C28.5122 63.4209 19.8661 67.5155 17.9048 71.4711C15.0996 77.1284 14.4724 87.2933 14.4724 87.2933C14.4724 87.2933 28.9233 87.6546 33.5956 81.36Z" fill="#FFF" stroke-width="2px"></path></g><path class="stroke2" d="M33.5956 81.36C35.7821 78.4143 37.1248 71.0988 33.1053 67.5155C28.5122 63.4209 19.8661 67.5155 17.9048 71.4711C15.0996 77.1284 14.4724 87.2933 14.4724 87.2933C14.4724 87.2933 28.9233 87.6546 33.5956 81.36Z" stroke="rgba(121,52,210,1)" stroke-width="2px"></path></g></g><defs><filter id="filter0_ii" x="19.4124" y="14.7099" width="44.3849" height="33.3543" filterUnits="userSpaceOnUse" color-interpolation-filters="sRGB"><feFlood flood-opacity="0" result="BackgroundImageFix"></feFlood><feBlend mode="normal" in="SourceGraphic" in2="BackgroundImageFix" result="shape"></feBlend><feColorMatrix in="SourceAlpha" type="matrix" values="0 0 0 0 0 0 0 0 0 0 0 0 0 0 0 0 0 0 127 0" result="hardAlpha"></feColorMatrix><feOffset dx="4" dy="-4"></feOffset><feGaussianBlur stdDeviation="2"></feGaussianBlur><feComposite in2="hardAlpha" operator="arithmetic" k2="-1" k3="1"></feComposite><feColorMatrix type="matrix" values="0 0 0 0 0 0 0 0 0 0 0 0 0 0 0 0 0 0 0.3 0"></feColorMatrix><feBlend mode="normal" in2="shape" result="effect1_innerShadow"></feBlend><feColorMatrix in="SourceAlpha" type="matrix" values="0 0 0 0 0 0 0 0 0 0 0 0 0 0 0 0 0 0 127 0" result="hardAlpha"></feColorMatrix><feOffset dx="-4" dy="4"></feOffset><feGaussianBlur stdDeviation="1"></feGaussianBlur><feComposite in2="hardAlpha" operator="arithmetic" k2="-1" k3="1"></feComposite><feColorMatrix type="matrix" values="0 0 0 0 1 0 0 0 0 1 0 0 0 0 1 0 0 0 0.3 0"></feColorMatrix><feBlend mode="normal" in2="effect1_innerShadow" result="effect2_innerShadow"></feBlend></filter><filter id="filter1_ii" x="53.7468" y="38.1296" width="34.02" height="44.8564" filterUnits="userSpaceOnUse" color-interpolation-filters="sRGB"><feFlood flood-opacity="0" result="BackgroundImageFix"></feFlood><feBlend mode="normal" in="SourceGraphic" in2="BackgroundImageFix" result="shape"></feBlend><feColorMatrix in="SourceAlpha" type="matrix" values="0 0 0 0 0 0 0 0 0 0 0 0 0 0 0 0 0 0 127 0" result="hardAlpha"></feColorMatrix><feOffset dx="4" dy="-4"></feOffset><feGaussianBlur stdDeviation="2"></feGaussianBlur><feComposite in2="hardAlpha" operator="arithmetic" k2="-1" k3="1"></feComposite><feColorMatrix type="matrix" values="0 0 0 0 0 0 0 0 0 0 0 0 0 0 0 0 0 0 0.3 0"></feColorMatrix><feBlend mode="normal" in2="shape" result="effect1_innerShadow"></feBlend><feColorMatrix in="SourceAlpha" type="matrix" values="0 0 0 0 0 0 0 0 0 0 0 0 0 0 0 0 0 0 127 0" result="hardAlpha"></feColorMatrix><feOffset dx="-4" dy="4"></feOffset><feGaussianBlur stdDeviation="1"></feGaussianBlur><feComposite in2="hardAlpha" operator="arithmetic" k2="-1" k3="1"></feComposite><feColorMatrix type="matrix" values="0 0 0 0 1 0 0 0 0 1 0 0 0 0 1 0 0 0 0.3 0"></feColorMatrix><feBlend mode="normal" in2="effect1_innerShadow" result="effect2_innerShadow"></feBlend></filter><filter id="filter2_ii" x="21.6562" y="-10.4143" width="91.4114" height="91.4114" filterUnits="userSpaceOnUse" color-interpolation-filters="sRGB"><feFlood flood-opacity="0" result="BackgroundImageFix"></feFlood><feBlend mode="normal" in="SourceGraphic" in2="BackgroundImageFix" result="shape"></feBlend><feColorMatrix in="SourceAlpha" type="matrix" values="0 0 0 0 0 0 0 0 0 0 0 0 0 0 0 0 0 0 127 0" result="hardAlpha"></feColorMatrix><feOffset dx="4" dy="-4"></feOffset><feGaussianBlur stdDeviation="2"></feGaussianBlur><feComposite in2="hardAlpha" operator="arithmetic" k2="-1" k3="1"></feComposite><feColorMatrix type="matrix" values="0 0 0 0 0 0 0 0 0 0 0 0 0 0 0 0 0 0 0.3 0"></feColorMatrix><feBlend mode="normal" in2="shape" result="effect1_innerShadow"></feBlend><feColorMatrix in="SourceAlpha" type="matrix" values="0 0 0 0 0 0 0 0 0 0 0 0 0 0 0 0 0 0 127 0" result="hardAlpha"></feColorMatrix><feOffset dx="-4" dy="4"></feOffset><feGaussianBlur stdDeviation="1"></feGaussianBlur><feComposite in2="hardAlpha" operator="arithmetic" k2="-1" k3="1"></feComposite><feColorMatrix type="matrix" values="0 0 0 0 1 0 0 0 0 1 0 0 0 0 1 0 0 0 0.3 0"></feColorMatrix><feBlend mode="normal" in2="effect1_innerShadow" result="effect2_innerShadow"></feBlend></filter><filter id="filter3_ii" x="46.9885" y="29.0191" width="25.7581" height="25.7581" filterUnits="userSpaceOnUse" color-interpolation-filters="sRGB"><feFlood flood-opacity="0" result="BackgroundImageFix"></feFlood><feBlend mode="normal" in="SourceGraphic" in2="BackgroundImageFix" result="shape"></feBlend><feColorMatrix in="SourceAlpha" type="matrix" values="0 0 0 0 0 0 0 0 0 0 0 0 0 0 0 0 0 0 127 0" result="hardAlpha"></feColorMatrix><feOffset dx="4" dy="-4"></feOffset><feGaussianBlur stdDeviation="2"></feGaussianBlur><feComposite in2="hardAlpha" operator="arithmetic" k2="-1" k3="1"></feComposite><feColorMatrix type="matrix" values="0 0 0 0 0 0 0 0 0 0 0 0 0 0 0 0 0 0 0.3 0"></feColorMatrix><feBlend mode="normal" in2="shape" result="effect1_innerShadow"></feBlend><feColorMatrix in="SourceAlpha" type="matrix" values="0 0 0 0 0 0 0 0 0 0 0 0 0 0 0 0 0 0 127 0" result="hardAlpha"></feColorMatrix><feOffset dx="-4" dy="4"></feOffset><feGaussianBlur stdDeviation="1"></feGaussianBlur><feComposite in2="hardAlpha" operator="arithmetic" k2="-1" k3="1"></feComposite><feColorMatrix type="matrix" values="0 0 0 0 1 0 0 0 0 1 0 0 0 0 1 0 0 0 0.3 0"></feColorMatrix><feBlend mode="normal" in2="effect1_innerShadow" result="effect2_innerShadow"></feBlend></filter><filter id="filter4_ii" x="11.4104" y="60.8168" width="29.278" height="29.4804" filterUnits="userSpaceOnUse" color-interpolation-filters="sRGB"><feFlood flood-opacity="0" result="BackgroundImageFix"></feFlood><feBlend mode="normal" in="SourceGraphic" in2="BackgroundImageFix" result="shape"></feBlend><feColorMatrix in="SourceAlpha" type="matrix" values="0 0 0 0 0 0 0 0 0 0 0 0 0 0 0 0 0 0 127 0" result="hardAlpha"></feColorMatrix><feOffset dx="4" dy="-4"></feOffset><feGaussianBlur stdDeviation="2"></feGaussianBlur><feComposite in2="hardAlpha" operator="arithmetic" k2="-1" k3="1"></feComposite><feColorMatrix type="matrix" values="0 0 0 0 0 0 0 0 0 0 0 0 0 0 0 0 0 0 0.3 0"></feColorMatrix><feBlend mode="normal" in2="shape" result="effect1_innerShadow"></feBlend><feColorMatrix in="SourceAlpha" type="matrix" values="0 0 0 0 0 0 0 0 0 0 0 0 0 0 0 0 0 0 127 0" result="hardAlpha"></feColorMatrix><feOffset dx="-4" dy="4"></feOffset><feGaussianBlur stdDeviation="1"></feGaussianBlur><feComposite in2="hardAlpha" operator="arithmetic" k2="-1" k3="1"></feComposite><feColorMatrix type="matrix" values="0 0 0 0 1 0 0 0 0 1 0 0 0 0 1 0 0 0 0.3 0"></feColorMatrix><feBlend mode="normal" in2="effect1_innerShadow" result="effect2_innerShadow"></feBlend></filter><clipPath id="clip0"><rect width="100" height="100" fill="white" stroke-width="2px"></rect></clipPath></defs></svg>